# xmcd
#
# Track frame offsets: 
#        150
#        14175
#        27742
#        46470
#        62605
#        78450
#        96737
#        111442
#        128945
#        141887
#        159460
#        173240
#
# Disc length: 2530 seconds
#
# Revision: 3
# Processed by: cddbd v1.5PL3 Copyright (c) Steve Scherf et al.
# Submitted via: ExactAudioCopy v0.90b4
#
DISCID=b409e00c
DTITLE=Trace Adkins - More...
DYEAR=1999
DGENRE=Country
TTITLE0=More
TTITLE1=I'm Gonna Love You Anyway
TTITLE2=She's Still There
TTITLE3=Someday
TTITLE4=Can I Want Your Love
TTITLE5=Don't Lie
TTITLE6=A Working Man's Wage
TTITLE7=The Night He Can't Remember
TTITLE8=I Can Dig It
TTITLE9=Everything Takes Me Back
TTITLE10=All Hat, No Cattle
TTITLE11=Every Other Friday At Five
EXTD=YEAR: 1999
EXTT0=
EXTT1=
EXTT2=
EXTT3=
EXTT4=
EXTT5=
EXTT6=
EXTT7=
EXTT8=
EXTT9=
EXTT10=
EXTT11=
PLAYORDER=
